<svg width="24" height="24" viewBox="0 0 24 24" fill="none" xmlns="http://www.w3.org/2000/svg">
<g clip-path="url(#clip0_354_18894)">
<path d="M20.0066 19.0138L14.8096 13.8168M14.8096 13.8168C16.2162 12.4102 17.0064 10.5025 17.0064 8.51329C17.0064 6.5241 16.2162 4.61637 14.8096 3.20979C13.4031 1.80322 11.4953 1.01301 9.50614 1.01301C7.51694 1.01301 5.60922 1.80322 4.20264 3.20979C2.79607 4.61637 2.00586 6.5241 2.00586 8.51329C2.00586 10.5025 2.79607 12.4102 4.20264 13.8168C5.60922 15.2234 7.51694 16.0136 9.50614 16.0136C11.4953 16.0136 13.4031 15.2234 14.8096 13.8168ZM9.50664 5.51379V11.5138M12.5066 8.51379H6.50664" stroke="#FFE7D2" stroke-width="1.5" stroke-linecap="round" stroke-linejoin="round"/>
</g>
<defs>
<clipPath id="clip0_354_18894">
<rect width="24" height="24" fill="white"/>
</clipPath>
</defs>
</svg>
